<?xml version="1.0" standalone="no"?>
<!DOCTYPE svg PUBLIC "-//W3C//DTD SVG 20010904//EN"
 "http://www.w3.org/TR/2001/REC-SVG-20010904/DTD/svg10.dtd">
<svg version="1.0" xmlns="http://www.w3.org/2000/svg"
 width="300.000000pt" height="318.000000pt" viewBox="0 0 300.000000 318.000000"
 preserveAspectRatio="xMidYMid meet">
<metadata>
Created by potrace 1.10, written by Peter Selinger 2001-2011
</metadata>
<g transform="translate(0.000000,318.000000) scale(0.100000,-0.100000)"
fill="#000000" stroke="none">
<path d="M15 3120 c14 -184 17 -352 6 -435 -7 -49 -14 -112 -16 -140 -4 -41
-2 -37 12 25 19 89 23 494 4 570 -10 44 -10 44 -6 -20z"/>
<path d="M175 3033 c0 -147 -1 -149 -42 -273 -23 -69 -49 -152 -57 -186 -17
-67 -69 -414 -63 -421 5 -5 12 35 37 210 23 165 37 222 96 393 31 92 46 155
51 211 6 82 -3 213 -15 213 -4 0 -7 -66 -7 -147z"/>
<path d="M245 3158 c20 -90 25 -119 25 -165 0 -63 -24 -131 -80 -223 -60 -99
-78 -154 -106 -323 -13 -84 -36 -212 -50 -286 -14 -73 -23 -138 -21 -144 4
-12 31 126 77 398 37 220 46 247 115 355 67 106 76 131 77 200 1 63 -21 198
-34 206 -5 3 -6 -5 -3 -18z"/>
<path d="M312 3025 c-2 -181 5 -219 53 -319 26 -54 39 -103 55 -201 11 -72 30
-165 41 -208 39 -155 42 -186 49 -502 l7 -320 -2 325 c-2 289 -5 335 -23 415
-12 50 -31 140 -42 200 -42 214 -51 253 -71 291 -46 88 -52 115 -59 299 l-7
180 -1 -160z"/>
<path d="M356 3065 c6 -129 31 -277 63 -365 28 -78 26 -49 -4 50 -24 80 -34
143 -55 345 -9 89 -9 88 -4 -30z"/>
<path d="M407 3155 c-10 -41 8 -292 30 -406 9 -52 17 -114 16 -139 0 -29 2
-38 7 -25 7 19 53 -152 79 -290 5 -27 9 -40 10 -29 1 28 -31 182 -63 304 -42
157 -58 266 -65 445 -4 108 -9 159 -14 140z"/>
<path d="M485 3025 c3 -141 53 -573 70 -610 7 -14 -1 58 -31 277 -14 103 -29
256 -34 340 l-8 153 3 -160z"/>
<path d="M576 3025 c3 -88 14 -256 25 -374 35 -379 59 -740 59 -877 0 -160
-54 -583 -100 -778 -33 -144 -41 -273 -30 -486 6 -107 12 -226 13 -265 2 -38
3 90 3 285 l-1 355 32 150 c18 83 45 236 60 340 25 171 28 215 27 440 -1 178
-9 337 -28 555 -14 168 -31 368 -36 445 -6 77 -14 192 -19 255 -9 111 -9 110
-5 -45z"/>
<path d="M663 3095 c0 -49 3 -144 7 -210 l6 -120 1 105 c0 58 -3 152 -7 210
l-7 105 0 -90z"/>
<path d="M706 3097 c-8 -104 -9 -488 0 -510 3 -9 9 -110 14 -224 7 -182 8
-175 2 52 -4 143 -6 374 -4 513 1 138 1 252 -1 252 -2 0 -7 -37 -11 -83z"/>
<path d="M836 3098 c-3 -46 -8 -283 -11 -528 -3 -245 -11 -533 -19 -640 -8
-107 -20 -258 -25 -335 -6 -77 -16 -243 -21 -370 -6 -126 -15 -285 -19 -353
-5 -67 -7 -130 -4 -140 2 -10 8 -142 13 -293 l8 -274 -1 385 c-2 422 10 725
49 1220 20 261 27 432 33 865 4 297 7 541 5 543 -1 2 -5 -34 -8 -80z"/>
<path d="M904 2766 c1 -268 4 -398 9 -359 5 33 4 222 -1 419 l-9 359 1 -419z"/>
<path d="M925 2998 c4 -101 11 -262 15 -358 5 -111 6 -78 1 90 -3 146 -5 307
-4 358 1 60 -2 92 -9 92 -8 0 -8 -53 -3 -182z"/>
<path d="M1008 2925 c4 -137 6 -545 6 -905 0 -495 2 -607 8 -460 10 216 2
1217 -11 1460 -6 118 -7 96 -3 -95z"/>
<path d="M1088 2293 c3 -895 -5 -1330 -33 -1708 -8 -110 -14 -247 -13 -305 1
-100 1 -98 9 50 4 85 13 220 19 300 6 80 15 233 20 340 11 215 12 2151 2 2188
-4 13 -6 -376 -4 -865z"/>
<path d="M1152 3100 c-1 -47 -9 -144 -19 -217 -16 -124 -15 -152 1 -480 9
-191 21 -375 26 -408 17 -121 44 -545 44 -705 1 -155 -2 -181 -47 -425 -45
-246 -87 -554 -87 -639 0 -70 8 -34 19 94 16 166 32 273 88 590 44 245 47 277
47 420 -1 86 -13 275 -28 425 -34 335 -43 457 -58 758 -10 213 -9 252 6 375
10 75 16 173 14 217 l-4 80 -2 -85z"/>
<path d="M1227 3173 c-3 -5 -8 -80 -12 -168 -6 -142 -4 -182 19 -355 15 -107
42 -259 62 -336 30 -120 36 -164 39 -280 2 -77 11 -200 20 -274 31 -266 23
-352 -58 -585 -36 -104 -55 -199 -82 -395 -9 -63 -38 -216 -65 -339 -28 -123
-50 -234 -49 -245 1 -23 80 322 104 454 8 47 26 159 40 249 18 120 36 196 66
280 81 232 91 309 64 511 -9 69 -20 211 -25 315 -7 156 -12 205 -33 275 -58
196 -91 474 -85 718 2 100 3 182 2 182 -2 0 -5 -3 -7 -7z"/>
<path d="M1346 3158 c-3 -13 -15 -104 -27 -203 -25 -213 -22 -283 20 -445 45
-178 63 -315 71 -560 5 -165 13 -259 30 -350 27 -149 21 -202 -35 -290 -85
-133 -102 -183 -140 -411 -20 -118 -59 -328 -86 -468 -28 -139 -48 -255 -46
-257 6 -6 118 569 152 776 27 162 52 234 115 325 75 109 85 178 51 346 -14 65
-22 156 -26 299 -7 230 -31 420 -75 597 -48 190 -48 224 6 621 5 44 -2 59 -10
20z"/>
<path d="M1482 3120 c-1 -36 -9 -135 -19 -220 -22 -212 -22 -513 1 -650 18
-109 23 -219 30 -655 4 -285 10 -320 66 -408 28 -45 30 -53 29 -145 l-1 -97
-24 110 c-14 60 -34 128 -44 151 -39 80 -94 75 -135 -12 -34 -72 -52 -151 -75
-344 -25 -203 -41 -293 -84 -463 -31 -123 -58 -267 -36 -192 45 150 103 434
125 607 37 288 63 387 114 432 28 25 62 11 85 -38 17 -36 61 -239 75 -348 5
-40 8 74 8 307 0 204 -3 332 -6 285 l-6 -85 -18 175 c-9 96 -19 193 -21 215
-3 22 -3 -14 -1 -80 2 -66 13 -187 25 -269 12 -81 20 -167 18 -190 l-3 -41
-35 69 -35 70 -6 185 c-4 102 -8 281 -8 396 -1 116 -5 237 -11 269 -34 208
-39 447 -15 726 9 107 15 220 13 250 l-4 55 -2 -65z"/>
<path d="M1536 3169 c-13 -38 -27 -202 -27 -316 0 -70 5 -263 11 -428 6 -165
12 -374 14 -465 2 -91 1 -5 0 190 -2 195 -6 461 -10 590 -4 179 -2 259 9 335
13 92 14 129 3 94z"/>
<path d="M1576 3018 c-3 -90 -8 -314 -10 -498 -3 -333 -3 -334 4 -75 4 143 11
367 15 498 4 130 5 237 3 237 -3 0 -8 -73 -12 -162z"/>
<path d="M1634 2898 c-9 -295 -6 -1015 5 -1159 3 -46 6 259 6 679 0 419 0 762
-1 762 -1 0 -5 -127 -10 -282z"/>
<path d="M1713 2973 c4 -115 2 -307 -3 -428 -20 -484 -20 -480 -10 -380 28
285 41 1015 18 1015 -8 0 -10 -53 -5 -207z"/>
<path d="M1838 3038 c18 -194 10 -309 -43 -608 -49 -275 -96 -615 -94 -683 1
-23 9 26 19 108 22 189 41 313 91 590 22 121 42 266 46 322 6 101 -14 413 -26
413 -4 0 -1 -64 7 -142z"/>
<path d="M1995 3038 c-1 -140 -1 -145 -42 -268 -58 -173 -70 -225 -99 -423
-14 -94 -48 -275 -75 -402 -64 -296 -71 -333 -66 -353 3 -12 5 -11 6 5 0 12
26 135 56 273 30 138 64 310 75 383 46 288 54 328 105 482 29 88 56 186 60
218 7 62 -3 227 -14 227 -3 0 -6 -64 -6 -142z"/>
<path d="M2061 3175 c-1 -5 6 -44 15 -85 27 -129 10 -194 -88 -353 -42 -67
-67 -158 -98 -352 -12 -77 -46 -261 -75 -410 -71 -359 -78 -411 -78 -610 0
-140 3 -185 21 -255 11 -47 26 -109 32 -139 17 -85 47 -142 100 -191 l50 -46
0 -284 c0 -156 3 -280 8 -276 4 4 7 112 7 239 0 128 4 251 9 275 l9 44 -66 61
c-74 71 -89 97 -106 186 -7 35 -21 98 -32 139 -15 59 -19 110 -19 236 0 209 9
285 75 616 30 151 68 358 85 460 33 198 42 224 141 390 l44 74 -1 101 c-1 61
-7 117 -17 145 -8 25 -15 41 -16 35z"/>
<path d="M2120 3072 c0 -170 15 -261 60 -361 29 -65 43 -114 55 -196 9 -61 27
-153 40 -205 43 -175 48 -214 55 -500 l6 -285 2 240 c2 254 -10 385 -47 530
-11 44 -29 135 -40 201 -22 128 -33 164 -75 254 -31 67 -46 193 -41 333 3 58
1 97 -5 97 -6 0 -10 -45 -10 -108z"/>
<path d="M2175 3055 c3 -71 12 -161 20 -200 19 -89 57 -217 62 -211 3 2 -10
53 -27 114 -22 78 -35 154 -45 268 l-14 159 4 -130z"/>
<path d="M2221 3110 c-2 -103 15 -275 40 -399 11 -57 17 -111 14 -119 -3 -8
13 -116 36 -241 55 -306 65 -459 44 -665 -2 -28 0 -35 8 -27 7 7 11 77 10 213
0 197 -2 210 -47 457 -25 140 -45 256 -43 258 6 5 57 -207 77 -320 10 -56 18
-93 19 -81 2 36 -39 245 -74 379 -40 151 -62 296 -74 485 -6 105 -8 118 -10
60z"/>
<path d="M2300 3166 c-14 -53 31 -579 47 -562 3 2 -3 62 -12 133 -9 70 -20
200 -24 288 -4 88 -9 151 -11 141z"/>
<path d="M2395 3010 c3 -96 11 -242 19 -325 28 -287 58 -671 66 -860 l8 -190
-3 200 c-4 181 -27 529 -56 820 -6 61 -17 205 -25 320 l-13 210 4 -175z"/>
<path d="M2481 3059 c1 -68 5 -176 9 -239 5 -73 6 -28 2 120 -2 129 -6 237 -8
239 -2 2 -3 -52 -3 -120z"/>
<path d="M2526 3118 c-14 -153 -15 -358 -3 -543 8 -110 13 -272 11 -360 l-2
-160 9 115 c6 76 5 203 -2 370 -7 148 -9 336 -5 448 8 190 4 250 -8 130z"/>
<path d="M2656 3148 c-4 -18 -11 -285 -16 -593 -7 -416 -14 -623 -29 -805 -12
-135 -25 -353 -31 -485 -5 -132 -14 -289 -21 -350 -9 -84 -9 -160 0 -320 7
-116 13 -257 14 -315 2 -61 4 -34 5 64 1 94 -3 232 -9 307 -8 101 -8 167 1
246 6 59 15 214 20 343 5 129 16 321 24 425 33 405 37 504 41 920 3 237 7 467
10 513 6 85 2 105 -9 50z"/>
<path d="M2713 3115 c0 -38 2 -53 4 -32 2 20 2 52 0 70 -2 17 -4 1 -4 -38z"/>
<path d="M2743 3070 c-1 -63 5 -221 12 -350 l14 -235 -6 195 c-3 107 -9 265
-13 350 -6 153 -7 154 -7 40z"/>
<path d="M2784 2960 c0 -124 2 -174 3 -112 2 61 2 163 0 225 -1 61 -3 11 -3
-113z"/>
<path d="M2825 2290 c0 -492 -3 -1091 -8 -1330 -4 -239 -5 -430 -3 -425 3 6 7
163 10 350 3 187 10 556 17 820 10 446 8 798 -9 1295 -4 102 -7 -218 -7 -710z"/>
<path d="M2905 2445 c0 -969 -9 -1562 -29 -1815 -9 -113 -15 -245 -14 -295 2
-83 2 -84 5 -20 2 39 10 167 18 285 9 118 20 332 25 475 11 296 12 1997 2
2065 -4 24 -7 -289 -7 -695z"/>
<path d="M2972 3105 c-1 -44 -9 -125 -17 -180 -8 -55 -14 -149 -14 -210 -1
-139 27 -664 38 -730 12 -72 13 -11 2 95 -5 47 -15 221 -22 387 -11 277 -11
314 5 440 10 76 16 170 14 208 l-4 70 -2 -80z"/>
<path d="M964 2910 c0 -80 2 -112 3 -72 2 39 2 105 0 145 -1 39 -3 7 -3 -73z"/>
<path d="M2724 2695 c0 -188 -4 -315 -12 -360 -17 -99 -32 -366 -42 -760 -10
-386 -11 -1148 -1 -1305 3 -58 6 91 5 330 -1 511 12 1248 25 1475 6 88 17 221
26 295 14 112 15 175 7 375 l-9 240 1 -290z"/>
<path d="M233 2758 c-52 -57 -85 -171 -108 -375 -21 -189 -41 -304 -81 -466
-19 -76 -34 -146 -33 -155 1 -25 66 237 89 358 11 58 27 170 35 249 30 269 91
423 153 385 44 -28 72 -118 97 -314 9 -69 28 -195 42 -280 22 -130 27 -185 27
-340 -1 -489 -133 -950 -272 -950 -52 0 -121 97 -163 230 -10 30 -18 48 -18
40 -2 -42 60 -191 97 -235 26 -32 64 -55 89 -55 39 0 96 63 136 147 107 228
172 725 137 1038 -12 107 -76 509 -92 580 -20 92 -67 165 -106 165 -5 0 -18
-10 -29 -22z"/>
<path d="M2053 2758 c-54 -59 -84 -162 -108 -367 -21 -172 -54 -355 -99 -544
-91 -384 -84 -636 24 -862 44 -92 73 -124 122 -131 29 -5 41 -1 70 25 126 110
222 530 222 966 -1 153 -5 210 -32 380 -53 327 -72 427 -91 470 -21 45 -55 85
-75 85 -7 0 -22 -10 -33 -22z m67 -18 c36 -36 51 -93 81 -300 16 -113 39 -261
51 -330 68 -400 -41 -1087 -194 -1216 -65 -54 -124 -18 -185 113 -105 228
-103 496 8 943 21 86 46 215 54 286 40 327 68 449 116 500 27 29 43 30 69 4z"/>
<path d="M2062 2404 c-53 -37 -96 -179 -157 -511 -21 -116 -24 -150 -16 -185
l10 -43 -5 45 c-4 44 20 196 66 400 47 213 90 300 142 287 59 -15 77 -139 78
-532 0 -448 -38 -697 -121 -798 -47 -57 -90 -48 -134 27 -47 80 -67 155 -76
276 l-7 115 3 -120 c4 -155 36 -255 105 -324 41 -41 64 -39 110 7 30 29 44 56
63 122 54 182 67 313 67 694 0 319 -10 448 -40 506 -26 51 -50 61 -88 34z"/>
<path d="M2026 2147 c-23 -23 -60 -109 -71 -164 -3 -15 5 -1 18 33 48 124 90
164 119 112 18 -35 35 -573 20 -661 -13 -76 -74 -242 -99 -269 -34 -38 -66
-17 -104 67 -17 38 -24 79 -29 170 l-8 120 3 -130 c2 -142 21 -209 70 -255 55
-52 95 -2 149 187 40 140 43 180 32 513 -8 229 -15 273 -47 290 -25 14 -27 13
-53 -13z"/>
<path d="M2012 2027 c-21 -23 -72 -155 -72 -186 0 -9 13 21 28 66 26 76 54
123 73 123 5 0 14 -10 20 -22 15 -28 21 -521 7 -588 -10 -48 -50 -115 -75
-124 -33 -13 -68 35 -86 119 -3 11 -5 4 -6 -15 -1 -47 32 -116 59 -125 31 -10
69 21 100 81 l25 48 0 297 c-1 263 -3 299 -18 323 -21 32 -28 32 -55 3z"/>
<path d="M1997 1829 c-19 -29 -49 -145 -45 -168 2 -9 10 13 17 49 7 36 20 78
28 94 28 54 37 16 40 -181 4 -176 3 -190 -17 -221 -17 -27 -23 -31 -39 -22
-23 12 -32 35 -42 115 -7 50 -7 46 -3 -25 8 -134 47 -168 92 -80 22 43 23 53
20 237 -3 163 -6 195 -20 209 -15 15 -17 15 -31 -7z"/>
<path d="M1872 1690 c-1 -14 3 -43 7 -65 l9 -40 0 35 c0 19 -4 49 -8 65 -7 27
-8 28 -8 5z"/>
<path d="M1975 1650 c-4 -17 -5 -34 -2 -36 2 -3 7 9 10 26 7 33 23 40 31 13 4
-14 4 -14 3 2 -4 34 -34 30 -42 -5z"/>
<path d="M2020 1546 c0 -56 -4 -87 -13 -94 -17 -14 -34 -3 -40 28 -5 22 -5 21
-4 -4 1 -16 10 -34 20 -40 32 -19 47 17 47 111 0 46 -2 83 -5 83 -3 0 -5 -38
-5 -84z"/>
<path d="M2784 2620 c0 -63 1 -89 3 -57 2 31 2 83 0 115 -2 31 -3 5 -3 -58z"/>
<path d="M687 2450 c3 -151 9 -358 13 -460 6 -135 7 -97 3 140 -3 179 -9 386
-13 460 -5 87 -6 38 -3 -140z"/>
<path d="M2507 2045 c2 -669 1 -703 -47 -1125 -25 -219 -46 -718 -31 -733 8
-8 11 42 11 167 0 219 13 410 47 676 25 194 26 235 30 755 2 303 0 629 -4 725
-5 115 -7 -44 -6 -465z"/>
<path d="M968 2150 c2 -228 8 -584 12 -790 7 -325 7 -308 3 125 -3 275 -9 631
-13 790 -6 235 -7 211 -2 -125z"/>
<path d="M464 2530 c3 -19 21 -129 42 -245 40 -229 46 -347 32 -650 l-7 -150
15 170 c20 233 13 384 -30 630 -36 202 -60 319 -52 245z"/>
<path d="M2362 2490 c-1 -14 3 -43 7 -65 6 -26 9 -31 9 -15 1 14 -3 43 -7 65
-6 26 -9 31 -9 15z"/>
<path d="M921 2340 c-10 -81 -15 -300 -18 -740 -3 -344 -3 -623 0 -620 3 3 8
284 11 625 3 350 11 659 17 710 6 50 9 102 7 115 -2 14 -9 -27 -17 -90z"/>
<path d="M234 2395 c-39 -39 -62 -102 -98 -268 -59 -265 -78 -397 -67 -442 10
-38 10 -37 6 20 -3 41 -1 52 4 35 5 -15 9 -18 10 -9 1 9 3 32 6 50 4 29 3 30
-4 9 -20 -57 -10 21 29 210 58 285 94 383 146 396 33 8 50 -8 71 -69 16 -47
18 -93 18 -467 0 -356 -3 -428 -18 -510 -46 -244 -105 -347 -181 -312 -30 13
-94 136 -112 215 l-14 62 6 -55 c10 -107 98 -250 153 -250 51 0 109 102 141
246 36 167 42 274 38 659 -5 400 -11 455 -61 490 -30 21 -44 19 -73 -10z"/>
<path d="M2735 2323 c-3 -27 -7 -403 -9 -838 l-3 -790 7 780 c4 429 11 806 15
838 4 31 5 57 2 57 -3 0 -8 -21 -12 -47z"/>
<path d="M886 2277 c-40 -374 -60 -2058 -25 -2092 8 -7 9 1 4 30 -11 59 -7
1419 5 1635 6 102 15 252 21 334 10 151 7 209 -5 93z"/>
<path d="M2784 2155 c0 -99 2 -138 3 -87 2 51 2 132 0 180 -1 48 -3 6 -3 -93z"/>
<path d="M581 2250 c0 -7 10 -91 24 -185 13 -93 26 -186 29 -205 2 -19 2 3 -1
50 -4 78 -49 374 -52 340z"/>
<path d="M552 2220 c-1 -14 3 -43 7 -65 6 -26 9 -31 9 -15 1 14 -3 43 -7 65
-6 26 -9 31 -9 15z"/>
<path d="M2411 2165 c0 -11 8 -78 19 -150 27 -177 25 -293 -5 -456 -14 -74
-32 -197 -41 -274 -25 -228 -42 -312 -95 -469 -67 -197 -75 -271 -57 -486 l15
-165 -1 245 -1 245 53 155 c54 160 72 243 92 440 6 63 24 176 38 250 34 176
36 405 5 575 -11 61 -21 101 -22 90z"/>
<path d="M217 2158 c-20 -16 -62 -100 -77 -157 -15 -56 -7 -64 10 -9 23 80 69
158 91 158 36 0 46 -50 55 -280 14 -350 9 -414 -47 -562 -61 -158 -106 -169
-160 -38 -15 38 -24 88 -30 165 l-7 110 3 -115 c3 -129 21 -202 62 -250 59
-71 107 -15 164 190 36 130 38 178 27 520 -7 211 -10 232 -36 263 -18 20 -32
22 -55 5z"/>
<path d="M1573 2035 c0 -71 3 -215 6 -320 l7 -190 1 165 c0 91 -3 235 -7 320
l-6 155 -1 -130z"/>
<path d="M2391 2074 c-1 -11 3 -45 8 -75 21 -121 20 -188 -5 -355 -13 -91 -24
-178 -23 -192 1 -28 32 158 48 287 5 41 7 106 4 145 -6 79 -30 223 -32 190z"/>
<path d="M728 1865 c14 -414 3 -741 -35 -995 -11 -77 -15 -181 -14 -394 1
-159 3 -292 6 -294 3 -3 5 123 5 279 0 220 5 320 20 444 11 88 25 273 31 410
10 210 9 290 -4 500 l-15 250 6 -200z"/>
<path d="M1683 1990 c0 -41 2 -58 4 -37 2 20 2 54 0 75 -2 20 -4 3 -4 -38z"/>
<path d="M197 2032 c-20 -22 -67 -134 -67 -159 0 -10 11 13 25 51 36 102 76
136 92 79 5 -16 8 -156 8 -313 l0 -285 -28 -47 c-48 -82 -82 -85 -116 -12 -16
33 -21 67 -23 136 l-2 93 -4 -80 c-4 -102 11 -175 44 -206 23 -22 27 -23 52
-8 33 18 69 70 82 118 9 37 12 490 3 574 -5 44 -23 77 -42 77 -4 0 -15 -8 -24
-18z"/>
<path d="M585 2008 c18 -186 17 -204 -9 -375 -14 -95 -26 -185 -25 -200 1 -15
7 13 15 62 7 50 21 137 30 194 17 105 14 233 -6 326 l-9 40 4 -47z"/>
<path d="M2548 1660 c5 -364 -2 -515 -33 -755 -22 -172 -26 -313 -17 -535 l9
-205 0 290 c0 236 4 324 22 475 37 314 44 620 22 980 -4 63 -5 -49 -3 -250z"/>
<path d="M2794 1740 c0 -129 2 -182 3 -117 2 64 2 170 0 235 -1 64 -3 11 -3
-118z"/>
<path d="M2993 1865 c0 -38 2 -53 4 -32 2 20 2 52 0 70 -2 17 -4 1 -4 -38z"/>
<path d="M1674 1745 c0 -77 2 -107 3 -67 2 40 2 103 0 140 -2 37 -3 4 -3 -73z"/>
<path d="M181 1836 c-16 -19 -51 -151 -50 -186 1 -20 2 -21 6 -5 30 143 50
191 71 171 4 -4 10 -60 13 -124 l5 -117 2 116 c2 99 -1 120 -16 139 -16 20
-19 20 -31 6z"/>
<path d="M691 1675 c-5 -325 -11 -437 -35 -640 -35 -297 -43 -424 -43 -665 l0
-205 7 240 c9 261 20 403 52 650 20 154 37 634 26 710 -3 17 -6 -24 -7 -90z"/>
<path d="M628 1690 c-4 -36 -18 -128 -32 -205 -14 -77 -32 -207 -41 -290 -18
-171 -29 -218 -91 -400 -56 -167 -64 -242 -49 -460 l12 -170 -1 240 -1 240 57
170 c55 167 67 222 88 420 6 55 25 178 41 274 16 96 29 191 27 210 -2 27 -5
19 -10 -29z"/>
<path d="M52 1670 c0 -14 3 -45 7 -70 l8 -45 1 40 c0 22 -4 54 -8 70 -7 27 -8
28 -8 5z"/>
<path d="M167 1673 c-4 -3 -7 -13 -7 -22 1 -13 3 -12 11 3 14 24 28 5 30 -39
0 -16 3 -24 6 -17 15 38 -17 99 -40 75z"/>
<path d="M1625 1530 c-4 -67 -5 -123 -2 -126 2 -3 8 50 12 116 4 67 5 124 2
126 -3 3 -8 -49 -12 -116z"/>
<path d="M2353 1585 c0 -33 2 -45 4 -27 2 18 2 45 0 60 -2 15 -4 0 -4 -33z"/>
<path d="M2468 1580 c-29 -233 -62 -448 -89 -575 -34 -165 -37 -233 -30 -630
2 -170 5 -202 14 -170 7 28 7 108 0 265 -12 259 -5 386 31 550 29 134 89 551
84 589 -2 16 -6 4 -10 -29z"/>
<path d="M36 1563 c-4 -27 -8 -93 -11 -148 -4 -107 -1 -94 15 79 11 111 8 155
-4 69z"/>
<path d="M1663 1540 c0 -36 2 -50 4 -32 2 17 2 47 0 65 -2 17 -4 3 -4 -33z"/>
<path d="M1685 1420 c14 -367 49 -525 157 -703 45 -76 44 -50 22 -298 -4 -42
-3 -116 2 -165 9 -89 9 -89 17 106 15 339 18 307 -30 374 -97 134 -139 306
-153 615 -5 117 -12 216 -15 220 -4 3 -4 -64 0 -149z"/>
<path d="M142 1512 c-2 -48 11 -82 33 -82 20 0 37 36 32 68 -4 25 -4 25 -6 -4
-1 -38 -23 -61 -39 -41 -6 7 -12 33 -15 57 l-4 45 -1 -43z"/>
<path d="M111 1505 c-2 -25 21 -141 31 -152 6 -7 19 -13 30 -13 23 0 58 70 57
115 -1 26 -2 25 -10 -11 -6 -23 -19 -50 -30 -60 -20 -18 -21 -18 -40 5 -10 13
-19 35 -20 50 -1 27 -16 84 -18 66z"/>
<path d="M2343 1445 c0 -38 2 -53 4 -32 2 20 2 52 0 70 -2 17 -4 1 -4 -38z"/>
<path d="M2316 1428 c-12 -146 -70 -365 -122 -470 -13 -26 -44 -71 -68 -101
-69 -85 -94 -128 -110 -189 -15 -60 -24 -204 -13 -215 4 -3 7 23 7 60 0 132
30 215 119 325 81 100 133 226 171 414 20 98 37 248 28 248 -3 0 -8 -33 -12
-72z"/>
<path d="M2804 1375 c0 -71 1 -99 3 -62 2 37 2 96 0 130 -2 34 -3 4 -3 -68z"/>
<path d="M497 1404 c-12 -119 -72 -341 -116 -429 -22 -44 -65 -111 -95 -148
-84 -104 -96 -147 -107 -369 -6 -103 -9 -211 -7 -240 2 -29 7 35 11 142 13
302 26 352 121 469 63 77 98 144 138 261 32 95 71 303 66 353 -2 20 -6 5 -11
-39z"/>
<path d="M523 1415 c0 -33 2 -45 4 -27 2 18 2 45 0 60 -2 15 -4 0 -4 -33z"/>
<path d="M1653 1405 c0 -33 2 -45 4 -27 2 18 2 45 0 60 -2 15 -4 0 -4 -33z"/>
<path d="M1675 1205 l3 -190 47 -160 c53 -178 56 -213 43 -525 -4 -109 -4
-120 2 -45 4 55 11 159 15 230 8 141 7 151 -71 420 -22 75 -28 120 -34 275
l-8 185 3 -190z"/>
<path d="M2333 1315 c0 -33 2 -45 4 -27 2 18 2 45 0 60 -2 15 -4 0 -4 -33z"/>
<path d="M1002 770 c-1 -326 1 -590 6 -585 4 6 5 273 2 595 l-6 585 -2 -595z"/>
<path d="M1643 1210 c0 -36 2 -50 4 -32 2 17 2 47 0 65 -2 17 -4 3 -4 -33z"/>
<path d="M2313 1167 c-16 -103 -41 -161 -161 -378 -56 -101 -106 -204 -111
-229 -6 -25 -10 -121 -9 -215 l2 -170 6 185 c4 116 11 198 20 220 7 19 56 113
108 208 89 163 150 306 153 362 1 20 3 18 9 -10 10 -47 11 -2 2 60 l-7 44 -12
-77z"/>
<path d="M497 1178 c-12 -99 -43 -174 -147 -364 -57 -102 -110 -204 -118 -227
-17 -49 -28 -301 -15 -360 5 -25 8 23 8 141 l0 179 46 89 c25 49 82 159 126
244 80 154 120 273 111 332 -2 12 -7 -2 -11 -34z"/>
<path d="M2321 1085 c-3 -51 -37 -150 -93 -275 -34 -74 -68 -155 -75 -180 -18
-57 -52 -472 -38 -458 3 3 12 92 20 199 17 227 25 260 98 416 56 118 102 268
94 301 -4 14 -5 13 -6 -3z"/>
<path d="M487 1009 c-9 -39 -44 -129 -77 -201 -34 -72 -68 -156 -76 -187 -14
-53 -48 -440 -39 -449 6 -6 15 72 25 232 12 183 26 237 100 396 52 112 100
263 88 275 -2 3 -12 -27 -21 -66z"/>
<path d="M1618 663 c2 -224 6 -428 10 -452 4 -24 5 145 4 375 -2 231 -7 434
-10 452 -4 18 -6 -151 -4 -375z"/>
<path d="M1654 940 c0 -74 1 -105 3 -67 2 37 2 97 0 135 -2 37 -3 6 -3 -68z"/>
<path d="M2988 960 c-3 -25 -20 -124 -36 -220 -38 -216 -80 -590 -62 -545 4
11 15 94 25 185 9 91 32 257 51 370 19 112 33 216 32 230 -2 17 -5 11 -10 -20z"/>
<path d="M909 943 c-2 -16 -2 -197 1 -403 l6 -375 1 403 c1 221 1 402 -1 402
-2 0 -5 -12 -7 -27z"/>
<path d="M1428 890 c-49 -38 -90 -172 -148 -475 -16 -86 -18 -119 -11 -150 10
-39 10 -38 6 15 -2 32 -1 45 3 31 6 -20 11 -11 25 49 21 87 16 106 -6 23 -33
-127 -15 3 27 188 47 208 64 260 98 296 67 71 111 -13 127 -242 l10 -130 -5
136 c-5 146 -21 221 -54 257 -26 27 -40 28 -72 2z"/>
<path d="M5 876 c8 -36 31 -68 72 -96 45 -31 52 -61 46 -201 -2 -68 0 -189 6
-269 l10 -145 -5 197 c-2 112 1 231 7 274 13 96 4 122 -63 169 -27 20 -56 50
-64 68 -15 32 -15 32 -9 3z"/>
<path d="M2792 815 c-1 -49 -9 -193 -17 -320 -8 -126 -14 -250 -13 -275 1 -59
12 80 28 355 7 121 10 245 8 275 -3 42 -5 34 -6 -35z"/>
<path d="M967 685 c-8 -156 -17 -535 -11 -465 9 111 26 567 22 585 -2 11 -7
-43 -11 -120z"/>
<path d="M1662 649 c-2 -148 13 -386 28 -449 7 -31 8 -32 9 -8 1 15 -4 61 -10
103 -6 43 -14 173 -18 289 -8 209 -8 209 -9 65z"/>
<path d="M0 769 c0 -8 11 -30 24 -49 33 -49 49 -106 42 -145 -18 -97 -25 -211
-19 -305 l8 -105 6 165 c4 91 10 203 13 250 l8 85 -41 59 c-23 32 -41 52 -41
45z"/>
<path d="M1584 680 c0 -52 1 -74 3 -47 2 26 2 68 0 95 -2 26 -3 4 -3 -48z"/>
<path d="M1395 634 c-24 -26 -59 -106 -70 -161 -3 -15 5 -1 18 33 32 82 65
134 86 134 35 0 44 -47 51 -258 4 -111 9 -204 12 -207 6 -7 -1 367 -8 413 -5
33 -35 72 -54 72 -6 0 -22 -12 -35 -26z"/>
<path d="M2734 385 c0 -121 2 -169 3 -107 2 62 2 161 0 220 -1 59 -3 8 -3
-113z"/>
<path d="M1573 505 c0 -44 2 -61 4 -37 2 23 2 59 0 80 -2 20 -4 1 -4 -43z"/>
<path d="M2956 388 c-21 -100 -41 -192 -43 -203 -3 -11 -2 -17 1 -14 10 10 87
361 84 382 -2 10 -20 -64 -42 -165z"/>
<path d="M1382 518 c-20 -23 -62 -117 -62 -141 0 -7 11 15 25 47 67 164 108
108 100 -134 l-4 -125 10 100 c15 151 -3 275 -39 275 -5 0 -18 -10 -30 -22z"/>
<path d="M2824 325 c0 -88 2 -123 3 -77 2 46 2 118 0 160 -1 42 -3 5 -3 -83z"/>
<path d="M1994 310 c0 -74 1 -105 3 -67 2 37 2 97 0 135 -2 37 -3 6 -3 -68z"/>
<path d="M1562 330 c0 -47 3 -103 7 -125 8 -38 9 -37 9 20 0 33 -4 89 -8 125
l-7 65 -1 -85z"/>
<path d="M2966 279 c-9 -50 -15 -93 -13 -96 3 -2 12 37 22 87 9 51 14 94 12
96 -2 3 -12 -37 -21 -87z"/>
<path d="M1356 298 c-8 -18 -17 -51 -20 -73 -5 -32 -3 -29 12 17 31 101 50 99
62 -6 l7 -61 1 50 c0 66 -10 99 -31 103 -12 2 -22 -7 -31 -30z"/>
<path d="M0 125 c0 -18 -30 -17 404 -19 275 -1 360 -4 364 -14 2 -7 24 -12 58
-12 37 0 53 4 48 11 -4 7 2 9 16 7 15 -2 24 -11 27 -27 6 -40 19 -48 85 -50
35 -1 67 -6 73 -12 14 -14 42 -11 76 10 27 17 34 17 57 5 50 -26 71 -15 107
56 l18 35 13 -30 13 -30 1 31 c0 44 27 41 32 -4 5 -39 -13 -52 -45 -33 -16 10
-22 10 -34 -2 -13 -12 -9 -15 27 -21 26 -4 47 -2 55 4 9 8 20 8 32 2 10 -5
155 -10 330 -10 295 -1 313 0 336 18 16 13 23 27 20 39 -5 19 20 32 46 23 11
-4 11 -6 0 -13 -9 -6 7 -9 43 -9 35 0 58 5 60 12 3 9 96 12 369 12 338 1 364
2 367 19 3 16 -73 17 -1497 17 -1328 0 -1501 -2 -1501 -15z m1223 -36 c5 -4
21 -6 34 -4 19 2 23 -1 17 -14 -3 -9 -9 -24 -11 -33 -9 -29 -24 -20 -17 10 6
25 5 26 -8 8 -20 -25 -43 -15 -46 19 -2 32 9 57 16 35 3 -8 9 -18 15 -21z
m221 16 c-5 -11 2 -15 27 -16 19 0 50 -2 69 -4 45 -5 70 3 70 21 0 8 5 14 10
14 6 0 10 -8 10 -18 0 -13 7 -18 23 -17 12 1 32 -2 45 -6 14 -5 22 -5 22 2 0
6 10 9 23 7 15 -2 23 -11 24 -28 2 -23 2 -23 -6 -5 -8 17 -10 18 -10 3 -1 -20
-21 -25 -22 -5 0 8 -2 8 -5 1 -6 -15 -44 -6 -44 10 0 6 -5 4 -10 -4 -13 -21
-72 -22 -88 -2 -12 16 -14 16 -23 1 -12 -23 -75 -23 -84 0 -6 14 -8 14 -15 -4
-8 -18 -9 -18 -10 5 l-2 25 -8 -25 c-7 -21 -8 -19 -9 18 -1 23 3 42 9 42 5 0
7 -7 4 -15z m396 -19 c69 3 70 3 70 19 0 8 5 15 10 15 6 0 10 -13 10 -29 0
-33 17 -51 22 -24 2 14 16 17 71 19 67 3 67 3 66 -24 0 -24 -1 -25 -9 -7 -6
14 -9 15 -9 5 -1 -13 -24 -16 -146 -16 l-145 -1 1 41 c1 27 3 34 7 21 6 -16
15 -20 52 -19z m-854 11 c2 -7 17 -13 32 -12 15 0 32 -6 39 -15 10 -12 11 -10
9 13 -2 15 1 27 5 27 5 0 9 -6 9 -13 0 -8 15 -12 43 -12 36 0 42 -3 45 -22 2
-13 -1 -23 -7 -23 -6 0 -11 8 -12 18 0 13 -2 14 -6 2 -10 -25 -33 -42 -49 -36
-8 3 -13 10 -10 14 3 5 -14 8 -37 7 -23 -1 -47 2 -54 7 -7 5 -14 5 -18 -2 -15
-24 -35 -10 -35 25 0 29 4 35 20 35 11 0 23 -6 26 -13z"/>
</g>
</svg>
